[IMG]http://img63.imageshack.us/img63/1050/hddesirockers.png[/IMG]
[IMG]http://img156.imageshack.us/img156/5382/roadsignphp.png[/IMG]

[IMG]http://img62.imageshack.us/img62/412/hp6power.png[/IMG]

[IMG]http://img137.imageshack.us/img137/7919/dvdbluraylogo.gif[/IMG]

[IMG]http://img209.imageshack.us/img209/3343/25ic0hd1.png[/IMG]
[b]In the sixth year at Hogwarts School of Witchcraft, and in both wizard and muggle worlds Lord Voldemort and his henchmen 

are increasingly active. With vacancies to fill at Hogwarts, Professor Dumbledore persuades Horace Slughorn, back from 

retirement to become the potions teacher, while Professor Snape receives long awaited news. Harry Potter, together with 

Dumbledore, must face treacherous tasks to defeat his evil nemesis.[/b]

[IMG]http://img692.imageshack.us/img692/4868/zvbzx21.png[/IMG]
[b]General
UniqueID                         : 245173547209647855089651120578486406257 (0xB872B5263573296DBF7EDCEB2BC50C71)
Complete name                    : 6 Harry Potter And The Half-Blood Prince 2009 BRRip HINDI~3385VKSH
Format                           : Matroska
File size                        : 2.00 GiB
Duration                         : 2h 27mn
Overall bit rate                 : 1 949 Kbps
Encoded date                     : UTC 2010-08-25 14:40:14
Writing application              : mkvmerge v4.2.0 ('No Talking') built on Jul 28 2010 18:38:23
Writing library                  : libebml v1.0.0 + libmatroska v1.0.0[/b]

[IMG]http://img839.imageshack.us/img839/7057/imdb3.png[/IMG]
[size=3][url]http://www.imdb.com/title/tt0417741/[/url][/size]

[IMG]http://img214.imageshack.us/img214/241/windowsmediaplayerfile.png[/IMG]
[b]Video
ID                               : 1
Format                           : AVC
Format/Info                      : Advanced Video Codec
Format profile                   : High@L4.1
Format settings, CABAC           : Yes
Format settings, ReFrames        : 5 frames
Muxing mode                      : Header stripping
Codec ID                         : V_MPEG4/ISO/AVC
Duration                         : 2h 27mn
Bit rate                         : 1 782 Kbps
Width                            : 1 280 pixels
Height                           : 544 pixels
Display aspect ratio             : 2.35:1
Frame rate                       : 25.000 fps
Original frame rate              : 23.976 fps
Color space                      : YUV
Chroma subsampling               : 4:2:0
Bit depth                        : 8 bits
Scan type                        : Progressive
Bits/(Pixel*Frame)               : 0.102
Stream size                      : 1.83 GiB (91%)[/b]

[IMG]http://img821.imageshack.us/img821/5307/2l3ravv.png[/IMG]
[b]Audio
ID                               : 2
Format                           : MPEG Audio
Format version                   : Version 1
Format profile                   : Layer 3
Muxing mode                      : Header stripping
Codec ID                         : A_MPEG/L3
Codec ID/Hint                    : MP3
Duration                         : 2h 27mn
Bit rate mode                    : Constant
Bit rate                         : 128 Kbps
Channel(s)                       : 2 channels
Sampling rate                    : 44.1 KHz
Compression mode                 : Lossy
Video delay                      : 16ms
Stream size                      : 135 MiB (7%)[/b]

[IMG]http://img827.imageshack.us/img827/7996/ogtw21.gif[/IMG]
[IMG]http://img59.imageshack.us/img59/9118/harrypotterandthehalfblo.jpg[/IMG]
[IMG]http://img524.imageshack.us/img524/4245/harrypotterandthehalfblmn.jpg[/IMG]
[IMG]http://img263.imageshack.us/img263/986/harrypotterandthehalfblrn.jpg[/IMG]
[IMG]http://img713.imageshack.us/img713/6727/harrypotterandthehalfblq.jpg[/IMG]
[IMG]http://img89.imageshack.us/img89/2291/harrypotterandthehalfblw.jpg[/IMG]


[IMG]http://img819.imageshack.us/img819/4206/slqp2p1.gif[/IMG]

[IMG]http://img843.imageshack.us/img843/5108/seedyd3.gif[/IMG]

[IMG]http://img842.imageshack.us/img842/9185/e5ab9ad248f9074c.gif[/IMG]

[IMG]http://img806.imageshack.us/img806/4074/enjoy.png[/IMG]

[IMG]http://img831.imageshack.us/img831/91/15880378.png[/IMG]



